<?xml version="1.0" encoding="UTF-8" standalone="no"?>
<svg
   xmlns:dc="http://purl.org/dc/elements/1.1/"
   xmlns:cc="http://creativecommons.org/ns#"
   xmlns:rdf="http://www.w3.org/1999/02/22-rdf-syntax-ns#"
   xmlns:svg="http://www.w3.org/2000/svg"
   xmlns="http://www.w3.org/2000/svg"
   xmlns:sodipodi="http://sodipodi.sourceforge.net/DTD/sodipodi-0.dtd"
   xmlns:inkscape="http://www.inkscape.org/namespaces/inkscape"
   width="8"
   height="8"
   viewBox="0 0 8 8"
   id="svg5424"
   version="1.1"
   inkscape:version="0.91 r13725"
   sodipodi:docname="clipboard.svg">
  <metadata
     id="metadata5432">
    <rdf:RDF>
      <cc:Work
         rdf:about="">
        <dc:format>image/svg+xml</dc:format>
        <dc:type
           rdf:resource="http://purl.org/dc/dcmitype/StillImage" />
        <dc:title></dc:title>
      </cc:Work>
    </rdf:RDF>
  </metadata>
  <defs
     id="defs5430" />
  <sodipodi:namedview
     pagecolor="#ffffff"
     bordercolor="#666666"
     borderopacity="1"
     objecttolerance="10"
     gridtolerance="10"
     guidetolerance="10"
     inkscape:pageopacity="0"
     inkscape:pageshadow="2"
     inkscape:window-width="1350"
     inkscape:window-height="682"
     id="namedview5428"
     showgrid="false"
     inkscape:zoom="29.5"
     inkscape:cx="0.016949153"
     inkscape:cy="4"
     inkscape:window-x="0"
     inkscape:window-y="21"
     inkscape:window-maximized="0"
     inkscape:current-layer="svg5424" />
  <path
     d="M3.5 0c-.28 0-.5.22-.5.5v.5h-.75c-.14 0-.25.11-.25.25v.75h3v-.75c0-.14-.11-.25-.25-.25h-.75v-.5c0-.28-.22-.5-.5-.5zm-3.25 1c-.14 0-.25.11-.25.25v6.5c0 .14.11.25.25.25h6.5c.14 0 .25-.11.25-.25v-6.5c0-.14-.11-.25-.25-.25h-.75v2h-5v-2h-.75z"
     id="path5426"
     style="fill:#808080" />
</svg>
